<?xml version="1.0" encoding="UTF-8"?>
<svg xmlns="http://www.w3.org/2000/svg" xmlns:xlink="http://www.w3.org/1999/xlink" width="163px" height="190px" viewBox="0 0 163 190" version="1.1">
<g id="surface1">
<path style=" stroke:none;fill-rule:nonzero;fill:rgb(100%,72.156863%,0.392157%);fill-opacity:1;" d="M 143.136719 91.425781 C 144.191406 92.09375 144.628906 89.425781 143.425781 84.835938 C 143.410156 81.410156 142.125 77.398438 139.984375 75.386719 C 142.394531 76.480469 140.382812 76.183594 144.859375 81.402344 C 146.75 83.460938 145.441406 88.03125 148.585938 90.277344 C 149.96875 95.761719 149.839844 96.707031 149.734375 97.722656 C 149.671875 100.375 149.621094 103.035156 146.578125 103.453125 C 145.527344 102.402344 144.09375 101.351562 142.277344 100.300781 C 141.847656 97.699219 142.039062 94.789062 143.136719 91.425781 Z M 143.136719 91.425781 "/>
<path style=" stroke:none;fill-rule:nonzero;fill:rgb(100%,45.490196%,0.392157%);fill-opacity:1;" d="M 117.757812 120.050781 L 112.597656 111.746094 L 118.046875 106.019531 L 125.503906 104.589844 L 133.816406 105.734375 C 134.148438 106.394531 144.292969 104.269531 146.433594 104.015625 C 148.375 103.785156 155.339844 101.269531 156.183594 100.007812 C 159.648438 97.003906 159.660156 93.140625 160.199219 89.410156 C 161.207031 92.101562 161.382812 93.574219 160.773438 100.007812 C 156.472656 107.738281 152.90625 107.105469 146.433594 110.027344 C 150.929688 110.378906 155.421875 108.144531 159.914062 106.304688 C 157.4375 108.402344 161.152344 109.125 151.882812 114.609375 C 144.515625 118.914062 141.105469 116.972656 137.257812 117.761719 C 127.886719 116.554688 127.691406 114.207031 123.78125 112.320312 L 120.628906 116.617188 L 124.929688 121.769531 Z M 117.757812 120.050781 "/>
<path style=" stroke:none;fill-rule:nonzero;fill:rgb(83.137255%,0%,0%);fill-opacity:1;" d="M 148.730469 118.90625 C 145.921875 121.328125 144.367188 122.5 143.855469 122.628906 C 140.109375 127.019531 135.738281 127.640625 131.238281 127.496094 C 125.226562 123.488281 126.289062 119.480469 124.355469 115.46875 C 127.050781 112.894531 122.988281 113.128906 133.816406 107.164062 C 135.160156 105.507812 133.816406 107.164062 138.691406 102.582031 C 141.253906 101.277344 140.207031 90.148438 140.699219 85.402344 C 141.570312 89.511719 144.476562 95.066406 142.996094 100.292969 C 144.078125 102.558594 141.882812 109.066406 139.839844 108.023438 C 142.042969 109 143.464844 105.617188 146.433594 97.429688 L 147.296875 88.265625 C 149.207031 80.855469 151.117188 78.722656 153.03125 76.523438 L 159.339844 73.085938 C 158.480469 75.476562 153.582031 79.34375 152.742188 84.542969 C 151.496094 92.125 150.3125 99.546875 151.308594 101.152344 C 155.253906 89.042969 156.523438 84.351562 160.199219 83.109375 C 157.054688 87.738281 155.835938 98.589844 154.175781 110.601562 C 152.15625 116.367188 150.402344 118.222656 148.730469 118.90625 Z M 148.730469 118.90625 "/>
<path style=" stroke:none;fill-rule:nonzero;fill:rgb(66.666667%,0%,0%);fill-opacity:1;" d="M 126.347656 143.699219 C 129.03125 144.328125 132.957031 144.121094 132.957031 144.121094 C 132.957031 144.121094 132.777344 142.644531 140.390625 140.546875 C 149.84375 137.941406 149.859375 127.359375 149.269531 126.890625 C 147.136719 130.097656 148.082031 131.265625 142.457031 132.5625 L 139.769531 134.035156 C 141.8125 133.0625 143.261719 131.898438 143.695312 129.832031 C 149.800781 126.980469 153.753906 122.878906 153.195312 115.757812 C 149.753906 120.988281 149.410156 122.734375 145.964844 123.53125 C 145.707031 125.367188 134.933594 130.65625 133.988281 129.203125 C 133.222656 128.027344 121.804688 131.304688 119.945312 131.511719 C 118.085938 131.722656 115.609375 136.554688 115.609375 136.554688 L 117.054688 140.96875 Z M 126.347656 143.699219 "/>
<path style=" stroke:none;fill-rule:nonzero;fill:rgb(83.529412%,0%,0%);fill-opacity:1;" d="M 125.539062 151.433594 C 129.265625 152.292969 134.714844 152.003906 134.714844 152.003906 C 134.714844 152.003906 134.46875 149.996094 145.039062 147.136719 C 158.164062 143.585938 158.1875 129.15625 157.367188 128.523438 C 154.40625 132.894531 155.71875 134.484375 147.90625 136.253906 L 144.175781 138.257812 C 147.011719 136.933594 149.027344 135.347656 149.625 132.53125 C 158.105469 128.644531 163.589844 123.050781 162.816406 113.34375 C 158.039062 120.476562 157.558594 122.855469 152.78125 123.941406 C 152.421875 126.445312 137.464844 133.652344 136.148438 131.671875 C 135.085938 130.070312 119.230469 134.535156 116.648438 134.824219 C 114.070312 135.109375 110.628906 141.695312 110.628906 141.695312 L 112.632812 147.710938 Z M 125.539062 151.433594 "/>
<path style=" stroke:none;fill-rule:nonzero;fill:rgb(100%,72.156863%,0.392157%);fill-opacity:1;" d="M 130.089844 140.382812 C 129.417969 141.4375 133.523438 140.441406 138.121094 139.238281 C 141.550781 139.222656 142.988281 136.222656 145 134.082031 C 143.90625 136.492188 145.351562 137.632812 140.125 142.101562 C 138.113281 144.054688 136.222656 146.097656 131.238281 145.824219 L 123.78125 146.972656 L 117.757812 143.246094 L 121.199219 139.523438 Z M 130.089844 140.382812 "/>
<path style=" stroke:none;fill-rule:nonzero;fill:rgb(100%,0.392157%,0.392157%);fill-opacity:1;" d="M 118.332031 81.390625 L 121.488281 72.800781 L 128.65625 70.222656 L 132.957031 73.085938 L 139.839844 70.222656 C 142.359375 72.945312 146.320312 65.410156 148.15625 63.351562 L 151.308594 56.191406 C 150.992188 59.800781 151.96875 64.265625 149.589844 66.5 C 147.28125 71.226562 145.699219 73.070312 144.140625 74.804688 C 147.679688 73.621094 151.214844 71.5625 154.75 69.652344 C 152.171875 72.496094 149.589844 75.542969 147.007812 77.667969 C 142.273438 82.9375 139.074219 82.070312 135.824219 81.390625 L 125.789062 83.398438 L 118.90625 82.824219 "/>
<path style=" stroke:none;fill-rule:nonzero;fill:rgb(83.137255%,0%,0%);fill-opacity:1;" d="M 115.328125 70.792969 L 114.753906 62.203125 L 119.628906 57.90625 L 123.644531 53.324219 C 125.128906 52.269531 125.921875 53.960938 128.804688 47.3125 C 129.214844 41.640625 129.230469 36.5 127.371094 33.851562 C 126.816406 21.1875 129.222656 21.332031 129.378906 18.675781 L 131.960938 16.097656 C 131.445312 20.425781 128.496094 25.726562 131.386719 28.699219 C 133.492188 36.914062 132.863281 39.664062 131.960938 41.871094 C 130.703125 49.84375 131.527344 50.535156 131.671875 53.613281 C 133.296875 54.402344 134.921875 49.230469 136.546875 42.441406 C 138.410156 37.589844 136.441406 34.015625 136.261719 29.84375 C 136.945312 35.90625 139.753906 34.167969 138.269531 48.171875 C 139.574219 53.039062 138.683594 57.90625 135.402344 62.773438 C 127.082031 67.464844 130.992188 67.707031 130.238281 69.648438 L 119.34375 73.945312 Z M 115.328125 70.792969 "/>
<path style=" stroke:none;fill-rule:nonzero;fill:rgb(82.745098%,21.960784%,20%);fill-opacity:1;" d="M 140.074219 83.707031 C 138.347656 85.515625 137.386719 86.394531 137.074219 86.488281 C 134.765625 89.773438 132.070312 90.234375 129.300781 90.128906 C 125.597656 87.132812 126.253906 84.136719 125.0625 81.136719 C 126.71875 79.214844 124.21875 79.386719 130.890625 74.929688 C 131.71875 73.691406 130.890625 74.929688 133.890625 71.507812 C 135.46875 70.527344 134.824219 62.214844 135.128906 58.664062 C 135.667969 61.734375 137.453125 65.886719 136.542969 69.792969 C 137.210938 71.488281 135.859375 76.351562 134.597656 75.574219 C 135.957031 76.300781 136.832031 73.773438 138.660156 67.652344 L 139.191406 60.804688 C 140.371094 55.265625 141.546875 53.671875 142.722656 52.027344 L 146.609375 49.460938 C 146.082031 51.246094 143.066406 54.136719 142.546875 58.023438 C 141.78125 63.691406 141.050781 69.238281 141.664062 70.4375 C 144.09375 61.382812 144.878906 57.878906 147.140625 56.953125 C 145.203125 60.410156 144.453125 68.523438 143.429688 77.5 C 142.1875 81.808594 141.105469 83.195312 140.074219 83.707031 Z M 140.074219 83.707031 "/>
<path style=" stroke:none;fill-rule:nonzero;fill:rgb(100%,72.156863%,0.392157%);fill-opacity:1;" d="M 124.929688 65.640625 C 125.984375 66.3125 126.421875 63.644531 125.21875 59.054688 C 125.203125 55.628906 123.917969 51.617188 121.777344 49.605469 C 124.1875 50.699219 122.175781 50.402344 126.652344 55.621094 C 128.546875 57.679688 127.234375 62.25 130.378906 64.496094 C 131.761719 69.976562 131.632812 70.925781 131.527344 71.941406 C 131.464844 74.59375 131.414062 77.253906 128.371094 77.667969 C 127.320312 76.621094 125.886719 75.570312 124.070312 74.519531 C 123.640625 71.917969 123.832031 69.007812 124.929688 65.640625 Z M 124.929688 65.640625 "/>
<path style=" stroke:none;fill-rule:nonzero;fill:rgb(83.137255%,0%,0%);fill-opacity:1;" d="M 35.273438 74.664062 C 38.078125 77.085938 39.636719 78.257812 40.148438 78.386719 C 43.890625 82.777344 48.265625 83.398438 52.765625 83.253906 C 58.777344 79.246094 57.710938 75.238281 59.648438 71.226562 C 56.953125 68.652344 61.015625 68.886719 50.183594 62.921875 C 48.839844 61.265625 50.183594 62.921875 45.308594 58.339844 C 42.75 57.035156 43.796875 45.90625 43.300781 41.160156 C 42.429688 45.269531 39.527344 50.824219 41.007812 56.050781 C 39.925781 58.316406 42.117188 64.824219 44.164062 63.78125 C 41.957031 64.757812 40.535156 61.375 37.566406 53.1875 L 36.707031 44.023438 C 34.796875 36.613281 32.882812 34.480469 30.972656 32.28125 L 24.664062 28.84375 C 25.523438 31.234375 30.417969 35.101562 31.257812 40.300781 C 32.503906 47.882812 33.691406 55.304688 32.691406 56.910156 C 28.75 44.800781 27.476562 40.109375 23.804688 38.867188 C 26.949219 43.496094 28.164062 54.347656 29.824219 66.359375 C 31.847656 72.125 33.601562 73.980469 35.273438 74.664062 Z M 35.273438 74.664062 "/>
<path style=" stroke:none;fill-rule:nonzero;fill:rgb(100%,45.490196%,0.392157%);fill-opacity:1;" d="M 43.367188 122.878906 C 47.519531 120.59375 48.125 117.605469 48.527344 114.574219 C 47.550781 112.523438 48.304688 110.1875 43.078125 108.847656 C 40.59375 107.144531 38.109375 107.75 35.625 107.414062 L 27.308594 108.558594 C 26.976562 109.222656 16.832031 107.09375 14.691406 106.839844 C 12.753906 106.613281 5.785156 104.097656 4.941406 102.832031 C 1.476562 99.832031 1.464844 95.96875 0.925781 92.238281 C -0.078125 94.925781 -0.257812 96.402344 0.351562 102.832031 C 4.652344 110.5625 8.21875 109.929688 14.691406 112.855469 C 10.199219 113.207031 5.707031 110.972656 1.214844 109.132812 C 3.6875 111.226562 -0.0273438 111.949219 9.242188 117.4375 C 16.609375 121.742188 20.019531 119.796875 23.867188 120.585938 C 33.242188 119.382812 33.433594 117.03125 37.34375 115.144531 C 40.496094 116.160156 41.160156 117.667969 40.5 119.441406 L 36.195312 124.597656 Z M 43.367188 122.878906 "/>
<path style=" stroke:none;fill-rule:nonzero;fill:rgb(83.529412%,0%,0%);fill-opacity:1;" d="M 42.667969 151.957031 C 38.9375 149.992188 33.492188 151.8125 33.492188 152.53125 C 30.140625 152.273438 27.351562 150.03125 23.167969 147.664062 C 11.335938 140.96875 10.019531 129.683594 10.835938 129.050781 C 13.800781 133.421875 12.484375 135.011719 20.300781 136.78125 L 24.027344 138.785156 C 21.195312 137.460938 19.179688 135.875 18.578125 133.058594 C 10.101562 129.171875 4.613281 123.578125 5.386719 113.871094 C 10.167969 121 10.644531 123.382812 15.425781 124.46875 C 15.785156 126.96875 30.742188 134.179688 32.054688 132.199219 C 33.121094 130.597656 48.976562 135.0625 51.554688 135.351562 C 54.136719 135.636719 57.578125 142.222656 57.578125 142.222656 L 55.570312 148.234375 C 51.269531 153.042969 46.96875 152.335938 42.667969 151.957031 Z M 42.667969 151.957031 "/>
<path style=" stroke:none;fill-rule:nonzero;fill:rgb(82.745098%,21.960784%,20%);fill-opacity:1;" d="M 37.183594 115.46875 L 37.757812 106.878906 L 32.882812 102.582031 L 28.867188 98 C 27.382812 96.945312 26.589844 98.636719 23.707031 91.988281 C 23.296875 86.316406 23.28125 81.175781 25.140625 78.527344 C 25.699219 65.863281 23.289062 66.007812 23.132812 63.351562 L 20.550781 60.773438 C 21.066406 65.101562 24.015625 70.40625 21.125 73.375 C 19.019531 81.589844 19.648438 84.339844 20.550781 86.546875 C 21.808594 94.519531 20.984375 95.210938 20.839844 98.289062 C 19.214844 99.078125 17.589844 93.90625 15.964844 87.121094 C 14.101562 82.265625 16.070312 78.691406 16.25 74.519531 C 15.570312 80.582031 12.757812 78.84375 14.242188 92.847656 C 12.9375 97.714844 13.828125 102.582031 17.109375 107.453125 C 25.433594 112.140625 21.519531 112.386719 22.273438 114.324219 L 33.167969 118.621094 Z M 37.183594 115.46875 "/>
<path style=" stroke:none;fill-rule:nonzero;fill:rgb(83.137255%,0%,0%);fill-opacity:1;" d="M 70.824219 45.820312 C 73.628906 48.238281 75.183594 49.410156 75.695312 49.542969 C 79.441406 53.933594 83.8125 54.550781 88.316406 54.410156 C 94.328125 50.402344 93.261719 46.390625 95.195312 42.382812 C 92.503906 39.804688 96.5625 40.039062 85.734375 34.078125 C 84.390625 32.417969 85.734375 34.078125 80.859375 29.496094 C 78.300781 28.1875 79.34375 17.0625 78.851562 12.3125 C 77.980469 16.425781 75.078125 21.980469 76.558594 27.207031 C 75.472656 29.46875 77.667969 35.980469 79.710938 34.9375 C 77.507812 35.910156 76.085938 32.53125 73.117188 24.339844 L 72.257812 15.175781 C 70.34375 7.769531 68.433594 5.636719 66.519531 3.4375 L 60.210938 0 C 61.070312 2.390625 65.96875 6.257812 66.808594 11.453125 C 68.054688 19.039062 69.242188 26.460938 68.242188 28.0625 C 64.300781 15.953125 63.027344 11.265625 59.351562 10.023438 C 62.496094 14.648438 63.714844 25.503906 65.375 37.515625 C 67.394531 43.277344 69.148438 45.136719 70.824219 45.820312 Z M 70.824219 45.820312 "/>
<path style=" stroke:none;fill-rule:nonzero;fill:rgb(83.529412%,0%,0%);fill-opacity:1;" d="M 89.105469 40.074219 C 88.242188 36.351562 88.53125 30.914062 88.53125 30.914062 C 88.53125 30.914062 90.542969 31.15625 93.40625 20.601562 C 96.960938 7.492188 111.410156 7.472656 112.042969 8.289062 C 107.667969 11.246094 106.074219 9.933594 104.300781 17.738281 L 102.296875 21.460938 C 103.625 18.632812 105.210938 16.617188 108.03125 16.019531 C 111.921875 7.554688 117.523438 2.074219 127.242188 2.847656 C 120.105469 7.621094 117.71875 8.097656 116.632812 12.871094 C 114.125 13.226562 106.910156 28.167969 108.890625 29.480469 C 110.492188 30.542969 106.023438 46.375 105.734375 48.953125 C 105.449219 51.53125 98.855469 54.96875 98.855469 54.96875 L 92.832031 52.960938 Z M 89.105469 40.074219 "/>
<path style=" stroke:none;fill-rule:nonzero;fill:rgb(100%,72.156863%,0.392157%);fill-opacity:1;" d="M 102.59375 28.128906 C 101.539062 28.800781 101.101562 26.128906 102.304688 21.539062 C 102.320312 18.113281 103.605469 14.101562 105.746094 12.089844 C 103.335938 13.183594 105.347656 12.886719 100.871094 18.105469 C 98.976562 20.164062 100.289062 24.734375 97.144531 26.980469 C 95.761719 32.464844 95.890625 33.410156 95.996094 34.429688 C 96.058594 37.078125 96.109375 39.738281 99.152344 40.15625 C 100.203125 39.105469 101.636719 38.054688 103.453125 37.003906 C 103.882812 34.402344 103.691406 31.492188 102.59375 28.128906 Z M 102.59375 28.128906 "/>
<path style=" stroke:none;fill-rule:nonzero;fill:rgb(100%,45.490196%,0.392157%);fill-opacity:1;" d="M 54.757812 86.792969 L 59.921875 78.488281 L 54.472656 72.761719 L 47.015625 71.332031 L 38.699219 72.476562 C 38.371094 73.136719 28.226562 71.011719 26.085938 70.757812 C 24.144531 70.527344 17.179688 68.011719 16.335938 66.75 C 12.871094 63.746094 12.859375 59.882812 12.320312 56.152344 C 11.3125 58.84375 11.136719 60.320312 11.746094 66.75 C 16.046875 74.480469 19.613281 73.847656 26.085938 76.773438 C 21.589844 77.121094 17.097656 74.890625 12.605469 73.046875 C 15.082031 75.144531 11.367188 75.867188 20.636719 81.355469 C 28.003906 85.65625 31.410156 83.714844 35.261719 84.503906 C 44.632812 83.300781 44.828125 80.949219 48.738281 79.0625 L 51.890625 83.359375 L 47.589844 88.511719 Z M 54.757812 86.792969 "/>
<path style=" stroke:none;fill-rule:nonzero;fill:rgb(83.137255%,0%,0%);fill-opacity:1;" d="M 10.554688 111.335938 C 12.28125 113.144531 13.242188 114.019531 13.558594 114.117188 C 15.863281 117.398438 18.558594 117.863281 21.328125 117.757812 C 25.03125 114.761719 24.375 111.761719 25.570312 108.765625 C 23.910156 106.839844 26.410156 107.015625 19.738281 102.558594 C 18.910156 101.320312 19.738281 102.558594 16.738281 99.132812 C 15.160156 98.15625 15.804688 89.839844 15.5 86.292969 C 14.960938 89.363281 13.175781 93.515625 14.085938 97.421875 C 13.417969 99.113281 14.769531 103.980469 16.03125 103.203125 C 14.671875 103.929688 13.796875 101.402344 11.96875 95.28125 L 11.4375 88.433594 C 10.257812 82.894531 9.082031 81.300781 7.902344 79.65625 L 4.019531 77.085938 C 4.546875 78.871094 7.5625 81.765625 8.082031 85.648438 C 8.847656 91.316406 9.578125 96.863281 8.964844 98.0625 C 6.535156 89.011719 5.753906 85.507812 3.488281 84.578125 C 5.425781 88.039062 6.175781 96.148438 7.199219 105.128906 C 8.441406 109.4375 9.523438 110.824219 10.554688 111.335938 Z M 10.554688 111.335938 "/>
<path style=" stroke:none;fill-rule:nonzero;fill:rgb(100%,72.156863%,0.392157%);fill-opacity:1;" d="M 30.574219 101.828125 C 29.898438 102.882812 32.570312 103.320312 37.167969 102.117188 C 40.597656 102.101562 44.617188 100.816406 46.628906 98.679688 C 45.535156 101.089844 45.832031 99.078125 40.609375 103.546875 C 38.546875 105.4375 33.96875 104.128906 31.71875 107.269531 C 26.230469 108.652344 25.28125 108.523438 24.261719 108.417969 C 21.609375 108.355469 18.945312 108.304688 18.527344 105.265625 C 19.578125 104.214844 20.632812 102.785156 21.683594 100.96875 C 24.289062 100.542969 27.203125 100.734375 30.574219 101.828125 Z M 30.574219 101.828125 "/>
<path style=" stroke:none;fill-rule:nonzero;fill:rgb(82.745098%,21.960784%,20%);fill-opacity:1;" d="M 53.28125 47.476562 C 55.007812 49.285156 55.96875 50.160156 56.28125 50.257812 C 58.589844 53.539062 61.28125 54.003906 64.054688 53.898438 C 67.757812 50.898438 67.101562 47.902344 68.292969 44.90625 C 66.636719 42.980469 69.136719 43.15625 62.464844 38.699219 C 61.636719 37.460938 62.464844 38.699219 59.464844 35.273438 C 57.886719 34.296875 58.53125 25.980469 58.226562 22.433594 C 57.6875 25.503906 55.902344 29.65625 56.8125 33.5625 C 56.144531 35.253906 57.496094 40.121094 58.757812 39.339844 C 57.398438 40.070312 56.523438 37.542969 54.695312 31.421875 L 54.164062 24.570312 C 52.984375 19.035156 51.808594 17.4375 50.628906 15.796875 L 46.746094 13.226562 C 47.273438 15.011719 50.289062 17.90625 50.808594 21.789062 C 51.574219 27.457031 52.304688 33.003906 51.691406 34.203125 C 49.261719 25.152344 48.476562 21.648438 46.214844 20.71875 C 48.152344 24.175781 48.902344 32.289062 49.925781 41.269531 C 51.167969 45.578125 52.25 46.964844 53.28125 47.476562 Z M 53.28125 47.476562 "/>
<path style=" stroke:none;fill-rule:nonzero;fill:rgb(100%,72.156863%,0.392157%);fill-opacity:1;" d="M 46.527344 45.710938 C 47.582031 46.382812 48.019531 43.714844 46.816406 39.125 C 46.800781 35.699219 45.515625 31.6875 43.375 29.675781 C 45.785156 30.769531 43.773438 30.472656 48.25 35.6875 C 50.144531 37.75 48.832031 42.320312 51.976562 44.566406 C 53.359375 50.046875 53.230469 50.996094 53.125 52.011719 C 53.0625 54.664062 53.015625 57.324219 49.96875 57.738281 C 48.917969 56.6875 47.484375 55.640625 45.667969 54.589844 C 45.238281 51.988281 45.429688 49.078125 46.527344 45.710938 Z M 46.527344 45.710938 "/>
<path style=" stroke:none;fill-rule:nonzero;fill:rgb(100%,72.156863%,0.392157%);fill-opacity:1;" d="M 41.054688 141.386719 C 41.726562 142.4375 37.621094 141.445312 33.023438 140.242188 C 29.59375 140.226562 28.15625 137.222656 26.140625 135.085938 C 27.238281 137.496094 25.792969 138.632812 31.015625 143.105469 C 33.03125 145.058594 34.921875 147.101562 39.90625 146.828125 L 47.363281 147.972656 L 53.382812 144.25 L 49.941406 140.527344 Z M 41.054688 141.386719 "/>
<path style=" stroke:none;fill-rule:nonzero;fill:rgb(82.745098%,21.960784%,20%);fill-opacity:1;" d="M 142.238281 103.824219 C 142.238281 136.800781 116.066406 163.535156 83.785156 163.535156 C 51.503906 163.535156 25.332031 136.800781 25.332031 103.824219 C 25.332031 70.847656 51.503906 44.117188 83.785156 44.117188 C 116.066406 44.117188 142.238281 70.847656 142.238281 103.824219 "/>
<path style=" stroke:none;fill-rule:nonzero;fill:rgb(93.72549%,23.921569%,22.745098%);fill-opacity:1;" d="M 27.714844 118.613281 C 27.714844 118.613281 23.484375 56.347656 80.933594 54.570312 L 76.925781 47.898438 L 45.75 58.347656 L 36.84375 68.578125 L 29.050781 83.476562 L 24.597656 100.824219 L 25.933594 112.386719 "/>
<path style=" stroke:none;fill-rule:nonzero;fill:rgb(13.72549%,12.156863%,12.54902%);fill-opacity:1;" d="M 43.75 63.09375 C 33.492188 73.574219 27.148438 88.042969 27.148438 104.046875 C 27.148438 120.050781 33.492188 134.523438 43.75 145 C 54.011719 155.476562 68.152344 161.941406 83.785156 161.941406 C 99.417969 161.941406 113.558594 155.476562 123.820312 145 C 134.074219 134.523438 140.421875 120.050781 140.421875 104.046875 C 140.421875 88.042969 134.074219 73.574219 123.820312 63.09375 C 113.558594 52.617188 99.417969 46.152344 83.785156 46.152344 C 68.152344 46.152344 54.011719 52.617188 43.75 63.09375 Z M 41.152344 147.535156 C 30.253906 136.402344 23.515625 121.019531 23.515625 104.046875 C 23.515625 87.074219 30.253906 71.695312 41.152344 60.5625 C 52.050781 49.425781 67.132812 42.523438 83.785156 42.527344 C 100.433594 42.523438 115.519531 49.425781 126.414062 60.5625 C 137.3125 71.695312 144.054688 87.078125 144.050781 104.046875 C 144.054688 121.019531 137.3125 136.402344 126.414062 147.535156 C 115.519531 158.667969 100.433594 165.570312 83.785156 165.570312 C 67.132812 165.570312 52.050781 158.667969 41.152344 147.535156 "/>
<path style=" stroke:none;fill-rule:nonzero;fill:rgb(100%,64.705882%,60.784314%);fill-opacity:1;" d="M 112.769531 21.726562 L 112.867188 28.519531 L 112.347656 31.871094 L 116.597656 36.777344 L 118.441406 38.097656 L 118.441406 35.171875 L 117.257812 28.238281 L 115.652344 24.371094 Z M 112.769531 21.726562 "/>
<path style=" stroke:none;fill-rule:nonzero;fill:rgb(13.72549%,12.156863%,12.54902%);fill-opacity:1;" d="M 111.402344 31.113281 C 111.59375 30.378906 111.773438 29.890625 111.824219 28.519531 C 111.949219 28.246094 112.011719 25.574219 112.015625 23.757812 C 112.035156 23.054688 111.996094 22.234375 111.777344 19.886719 C 112.167969 19.816406 112.386719 19.492188 113.242188 20.125 L 115.085938 22.339844 C 116.324219 24.121094 117.367188 25.875 117.730469 27.53125 C 118.015625 28.265625 118.347656 29.433594 119.007812 33.519531 C 119.457031 37.949219 119.371094 37.769531 119.476562 39.230469 L 119.101562 40.597656 L 117.96875 39.511719 L 117.777344 37.152344 C 117.699219 34.890625 117.835938 35 117.304688 31.632812 C 116.808594 29.640625 116.875 29.074219 116.171875 27.339844 L 115.226562 25.5 C 114.460938 23.523438 113.457031 22.574219 113.054688 22.339844 C 113.183594 23.921875 113.335938 25.605469 113.339844 26.304688 C 113.304688 28.914062 113.179688 29.71875 113.148438 30.832031 L 112.960938 32.71875 Z M 111.402344 31.113281 "/>
<path style="fill-rule:nonzero;fill:rgb(100%,64.705882%,60.784314%);fill-opacity:1;stroke-width:1.25;stroke-linecap:butt;stroke-linejoin:miter;stroke:rgb(0%,0%,0%);stroke-opacity:1;stroke-miterlimit:4;" d="M 203.401553 195.170559 L 186.736484 197.666365 L 164.231331 200.16949 L 149.649396 200.586678 L 135.484087 200.16949 L 124.651793 196.83199 L 115.069378 186.416941 L 107.562788 165.169655 L 105.896281 160.587911 L 95.897239 157.250411 L 90.064465 147.669737 L 85.898198 133.917188 L 90.481092 121.833388 L 101.313387 118.08602 L 110.062548 122.250576 L 114.236124 131.421382 L 119.235645 130.587007 L 120.902152 128.501069 L 119.235645 118.920395 L 118.819018 106.836595 L 121.318779 90.171053 L 121.216449 80.648931 L 128.81806 68.506579 L 142.150115 58.918586 L 165.481212 48.920724 L 191.319378 52.668092 L 213.817221 68.916447 L 224.232889 85.58199 L 230.898917 97.665789 L 232.565424 127.666694 L 227.565903 153.503043 L 218.400115 176.419079 L 209.650954 188.502878 " transform="matrix(0.534426,0,0,0.533708,0,0)"/>
<path style=" stroke:none;fill-rule:nonzero;fill:rgb(20%,31.372549%,38.039216%);fill-opacity:1;" d="M 101.132812 142.632812 L 69.289062 143.96875 L 69.289062 149.304688 L 71.960938 167.984375 L 70.625 169.542969 L 48.355469 161.980469 L 46.796875 159.3125 L 44.570312 134.183594 L 39.449219 119.0625 L 38.335938 115.503906 L 56.148438 103.273438 L 61.71875 101.050781 L 66.617188 107.054688 L 70.847656 110.835938 L 75.746094 112.390625 L 77.972656 113.058594 L 80.644531 124.621094 L 82.648438 127.066406 L 87.769531 125.289062 L 84.207031 132.183594 L 103.582031 141.300781 L 101.132812 142.632812 "/>
<path style=" stroke:none;fill-rule:nonzero;fill:rgb(42.745098%,41.960784%,42.745098%);fill-opacity:1;" d="M 48.355469 65.023438 L 54.144531 63.023438 L 58.820312 65.246094 L 61.050781 70.140625 L 63.722656 69.695312 L 64.390625 67.027344 L 63.054688 61.910156 L 64.390625 49.679688 L 63.277344 43.007812 L 67.285156 38.339844 L 75.96875 31.445312 L 73.519531 28.109375 L 61.269531 34.113281 L 56.148438 38.117188 L 53.253906 44.34375 L 48.800781 50.347656 L 47.464844 57.464844 L 48.355469 65.023438 "/>
<path style=" stroke:none;fill-rule:nonzero;fill:rgb(86.27451%,85.098039%,84.705882%);fill-opacity:1;" d="M 57.484375 44.121094 C 57.484375 44.121094 60.828125 35.894531 74.1875 31.890625 C 87.546875 27.886719 74.855469 29 74.855469 29 L 60.382812 34.558594 L 54.8125 40.117188 L 52.363281 44.566406 L 57.484375 44.121094 "/>
<path style=" stroke:none;fill-rule:nonzero;fill:rgb(86.27451%,85.098039%,84.705882%);fill-opacity:1;" d="M 50.804688 63.46875 C 50.804688 63.46875 46.128906 47.902344 63.945312 45.675781 L 63.277344 43.007812 L 51.027344 45.902344 L 47.464844 57.464844 L 48.355469 65.023438 L 50.804688 63.46875 "/>
<path style=" stroke:none;fill-rule:nonzero;fill:rgb(94.901961%,77.254902%,75.686275%);fill-opacity:1;" d="M 57.929688 84.148438 L 60.847656 81.328125 C 60.847656 81.328125 62.164062 81.480469 62.386719 83.035156 C 62.609375 84.59375 63.277344 98.605469 72.851562 106.164062 C 73.722656 106.855469 65.726562 105.050781 65.726562 105.050781 L 58.597656 93.933594 "/>
<path style=" stroke:none;fill-rule:nonzero;fill:rgb(94.901961%,77.254902%,75.686275%);fill-opacity:1;" d="M 98.90625 79.925781 C 98.90625 79.925781 99.425781 73.183594 101.242188 73.703125 C 103.058594 74.21875 103.058594 76.035156 103.058594 76.035156 C 103.058594 76.035156 98.644531 78.886719 98.90625 79.925781 "/>
<path style=" stroke:none;fill-rule:nonzero;fill:rgb(94.901961%,77.254902%,75.686275%);fill-opacity:1;" d="M 60.160156 69.917969 C 60.160156 69.917969 51.695312 64.800781 50.804688 69.695312 C 49.914062 74.585938 47.910156 78.144531 52.140625 83.261719 L 49.246094 82.371094 L 46.574219 75.476562 L 45.683594 68.804688 L 50.804688 63.46875 L 56.59375 63.914062 L 59.933594 66.582031 L 60.160156 69.917969 "/>
<path style=" stroke:none;fill-rule:nonzero;fill:rgb(94.901961%,77.254902%,75.686275%);fill-opacity:1;" d="M 64.167969 55.90625 C 64.167969 55.90625 67.953125 36.339844 87.101562 32.558594 C 102.867188 29.445312 111.152344 33.226562 114.269531 36.78125 C 114.269531 36.78125 100.238281 20.105469 86.878906 25.21875 C 73.519531 30.332031 63.722656 39.671875 63.945312 45.675781 C 64.324219 55.902344 64.167969 55.90625 64.167969 55.90625 "/>
<path style=" stroke:none;fill-rule:nonzero;fill:rgb(28.627451%,44.705882%,54.509804%);fill-opacity:1;" d="M 66.617188 107.054688 L 45.683594 116.394531 C 45.683594 116.394531 54.367188 150.863281 49.914062 161.535156 L 46.796875 160.425781 L 46.574219 147.304688 L 40.785156 122.398438 L 38.335938 115.503906 L 60.160156 100.828125 L 66.617188 107.054688 "/>
<path style=" stroke:none;fill-rule:nonzero;fill:rgb(28.627451%,44.705882%,54.509804%);fill-opacity:1;" d="M 68.769531 126.117188 L 71.738281 129.738281 L 71.738281 143.078125 L 68.175781 143.078125 C 68.175781 143.078125 67.730469 133.742188 67.730469 132.628906 C 67.730469 131.515625 68.175781 127.511719 68.175781 127.511719 "/>
<path style=" stroke:none;fill-rule:nonzero;fill:rgb(28.627451%,44.705882%,54.509804%);fill-opacity:1;" d="M 68.84375 145.082031 L 58.820312 145.527344 L 61.71875 147.527344 L 68.84375 148.640625 "/>
<path style=" stroke:none;fill-rule:nonzero;fill:rgb(20%,31.372549%,38.039216%);fill-opacity:1;" d="M 103.136719 142.855469 L 111.375 142.636719 L 113.378906 163.09375 L 104.917969 164.207031 L 103.136719 142.855469 "/>
<path style=" stroke:none;fill-rule:nonzero;fill:rgb(20%,31.372549%,38.039216%);fill-opacity:1;" d="M 105.363281 142.855469 L 117.832031 142.191406 C 117.832031 142.191406 122.953125 129.292969 122.953125 128.625 C 122.953125 127.957031 127.40625 109.945312 127.40625 109.945312 L 117.386719 99.492188 L 115.382812 97.714844 L 110.039062 103.050781 L 110.039062 123.734375 L 105.363281 142.855469 "/>
<path style=" stroke:none;fill-rule:nonzero;fill:rgb(28.627451%,44.705882%,54.509804%);fill-opacity:1;" d="M 110.929688 141.300781 L 103.136719 142.855469 L 104.25 149.085938 C 107.144531 150.417969 112.042969 146.859375 112.042969 146.859375 "/>
<path style=" stroke:none;fill-rule:nonzero;fill:rgb(28.627451%,44.705882%,54.509804%);fill-opacity:1;" d="M 111.152344 102.382812 L 126.738281 113.949219 L 127.183594 108.609375 L 115.382812 97.714844 L 111.152344 102.382812 "/>
<path style=" stroke:none;fill-rule:nonzero;fill:rgb(100%,100%,100%);fill-opacity:1;" d="M 76.570312 186.667969 L 71.960938 167.984375 L 69.667969 154.199219 L 69.289062 143.96875 L 90.152344 142.859375 L 103.136719 142.855469 L 101.957031 166.207031 L 103.960938 184.222656 L 103.738281 187.558594 L 86.8125 188.890625 L 76.570312 186.667969 "/>
<path style=" stroke:none;fill-rule:nonzero;fill:rgb(86.27451%,85.098039%,84.705882%);fill-opacity:1;" d="M 100.238281 142.636719 C 100.238281 142.636719 99.128906 165.761719 102.46875 182.21875 C 102.46875 182.21875 95.789062 186.445312 85.988281 187.554688 L 104.695312 186.886719 L 106.921875 185.554688 L 104.25 149.085938 L 103.582031 141.300781 "/>
<path style=" stroke:none;fill-rule:nonzero;fill:rgb(100%,100%,100%);fill-opacity:1;" d="M 113.757812 161.316406 L 122.441406 158.871094 L 138.917969 157.980469 L 141.371094 150.421875 L 136.914062 137.300781 L 131.792969 136.632812 L 124.667969 138.855469 L 117.832031 142.191406 L 114.203125 141.523438 L 111.375 142.636719 "/>
<path style=" stroke:none;fill-rule:nonzero;fill:rgb(86.27451%,85.098039%,84.705882%);fill-opacity:1;" d="M 113.601562 156.867188 C 113.601562 156.867188 119.390625 154.199219 120.28125 154.421875 L 117.832031 142.191406 L 120.726562 141.078125 C 120.726562 141.078125 122.730469 152.640625 122.730469 153.976562 C 122.730469 153.976562 135.199219 154.644531 136.3125 154.644531 C 136.3125 154.644531 138.984375 149.527344 138.316406 144.191406 L 140.769531 151.308594 L 140.988281 155.3125 L 137.425781 160.648438 L 133.417969 161.535156 L 126.738281 161.316406 L 124.511719 158.425781 L 116.71875 159.535156 L 114.269531 160.425781 "/>
<path style=" stroke:none;fill-rule:nonzero;fill:rgb(100%,100%,100%);fill-opacity:1;" d="M 104.851562 141.082031 L 99.953125 128.628906 L 94.828125 121.289062 C 94.828125 121.289062 95.941406 118.175781 97.5 118.175781 C 99.0625 118.175781 102.625 118.175781 102.625 118.175781 L 107.523438 119.953125 L 107.078125 128.183594 L 104.851562 141.082031 "/>
<path style=" stroke:none;fill-rule:nonzero;fill:rgb(86.27451%,85.098039%,84.705882%);fill-opacity:1;" d="M 105.808594 136.851562 C 105.808594 136.851562 99.570312 124.84375 99.570312 123.066406 C 99.570312 123.066406 100.683594 120.398438 102.246094 121.066406 C 103.804688 121.730469 107.144531 123.511719 107.144531 123.511719 L 107.144531 119.285156 L 99.570312 117.726562 L 94.453125 118.394531 L 103.136719 138.855469 L 104.917969 139.078125 "/>
<path style=" stroke:none;fill-rule:nonzero;fill:rgb(100%,100%,100%);fill-opacity:1;" d="M 78.574219 107.5 L 72.40625 106.832031 L 66.617188 105.050781 L 66.617188 107.054688 L 69.445312 110.167969 L 78.351562 114.171875 "/>
<path style=" stroke:none;fill-rule:nonzero;fill:rgb(86.27451%,85.098039%,84.705882%);fill-opacity:1;" d="M 68.621094 108.167969 C 68.621094 108.167969 75.523438 111.058594 77.75 110.390625 L 77.972656 113.058594 L 71.738281 111.726562 L 67.953125 109.058594 L 68.621094 108.167969 "/>
<path style=" stroke:none;fill-rule:nonzero;fill:rgb(82.745098%,21.960784%,20%);fill-opacity:1;" d="M 113.734375 118.933594 C 109.957031 118.820312 106.542969 118.375 103.554688 117.53125 C 103.757812 116.308594 103.375 115.105469 103.679688 114.226562 C 104.515625 113.625 105.910156 113.636719 107.167969 113.496094 C 106.082031 112.960938 104.550781 112.75 103.292969 113.058594 C 103.265625 112.207031 102.882812 111.683594 102.652344 111.019531 C 104.777344 110.261719 109.792969 105.296875 112.613281 106.941406 C 113.957031 107.722656 114.527344 112.1875 114.632812 114.359375 C 114.71875 116.160156 114.46875 117.976562 113.734375 118.933594 "/>
<path style="fill:none;stroke-width:2.5;stroke-linecap:butt;stroke-linejoin:miter;stroke:rgb(82.745098%,21.960784%,20%);stroke-opacity:1;stroke-miterlimit:4;" d="M 212.815855 222.843997 C 205.747819 222.631743 199.359543 221.797368 193.767974 220.216447 C 194.148054 217.925576 193.431748 215.671299 194.001869 214.024507 C 195.566047 212.897368 198.175446 212.919326 200.529021 212.655839 C 198.497052 211.653125 195.63183 211.257895 193.278254 211.836102 C 193.22709 210.240543 192.510784 209.259786 192.079539 208.015543 C 196.055766 206.595641 205.440831 197.293092 210.718103 200.374424 C 213.232482 201.83824 214.299631 210.203947 214.49698 214.273355 C 214.657784 217.647451 214.189992 221.050822 212.815855 222.843997 Z M 212.815855 222.843997 " transform="matrix(0.534426,0,0,0.533708,0,0)"/>
<path style=" stroke:none;fill-rule:nonzero;fill:rgb(82.745098%,21.960784%,20%);fill-opacity:1;" d="M 95.664062 112.765625 C 95.65625 113.050781 95.644531 113.335938 95.632812 113.625 C 94.453125 114.398438 92.546875 114.390625 91.253906 115.039062 C 93.160156 115.125 94.664062 115.582031 95.964844 116.230469 C 95.933594 116.949219 95.90625 117.667969 95.878906 118.386719 C 93.71875 119.863281 91.742188 122.066406 89.195312 123.453125 C 87.992188 124.109375 83.765625 125.796875 82.488281 125.496094 C 81.761719 125.328125 81.695312 124.429688 81.40625 123.585938 C 80.789062 121.773438 79.371094 118.886719 79.246094 116.160156 C 79.085938 112.710938 78.738281 106.9375 82.457031 107.644531 C 85.457031 108.21875 88.949219 109.597656 91.269531 110.867188 C 92.691406 111.640625 93.511719 112.597656 95.664062 112.765625 "/>
<path style="fill:none;stroke-width:2.5;stroke-linecap:butt;stroke-linejoin:miter;stroke:rgb(82.745098%,21.960784%,20%);stroke-opacity:1;stroke-miterlimit:4;" d="M 179.003307 211.287171 C 178.988689 211.821464 178.966761 212.355757 178.944833 212.897368 C 176.737442 214.346546 173.170533 214.331908 170.751174 215.546875 C 174.318084 215.707895 177.132141 216.564227 179.566119 217.779194 C 179.507645 219.125905 179.45648 220.472615 179.405315 221.819326 C 175.363305 224.585938 171.664829 228.713898 166.899204 231.312171 C 164.647958 232.541776 156.73936 235.703618 154.349238 235.140049 C 152.989719 234.825329 152.865462 233.141941 152.324578 231.56102 C 151.169718 228.164967 148.516464 222.756168 148.282568 217.647451 C 147.982889 211.184704 147.332367 200.367105 154.290764 201.691859 C 159.904261 202.767763 166.438722 205.351398 170.780411 207.730099 C 173.440975 209.179276 174.975915 210.972451 179.003307 211.287171 Z M 179.003307 211.287171 " transform="matrix(0.534426,0,0,0.533708,0,0)"/>
<path style=" stroke:none;fill-rule:nonzero;fill:rgb(82.745098%,21.960784%,20%);fill-opacity:1;" d="M 97.8125 116.875 C 97.484375 115 97.101562 114.464844 97.25 112.824219 C 102.261719 109.488281 103.203125 118.558594 97.8125 116.875 "/>
<path style="fill:none;stroke-width:2.5;stroke-linecap:butt;stroke-linejoin:miter;stroke:rgb(82.745098%,21.960784%,20%);stroke-opacity:1;stroke-miterlimit:4;" d="M 183.02339 218.986842 C 182.409413 215.473684 181.693108 214.47097 181.970859 211.396957 C 191.348615 205.146464 193.110142 222.141365 183.02339 218.986842 Z M 183.02339 218.986842 " transform="matrix(0.534426,0,0,0.533708,0,0)"/>
<path style=" stroke:none;fill-rule:nonzero;fill:rgb(93.72549%,23.921569%,22.745098%);fill-opacity:1;" d="M 105.074219 118.398438 C 105.074219 118.398438 103.511719 116.171875 104.628906 115.507812 C 105.742188 114.839844 106.855469 115.507812 107.523438 114.394531 C 108.191406 113.285156 107.523438 112.617188 107.746094 111.28125 C 107.96875 109.949219 109.082031 109.722656 110.195312 109.503906 C 111.308594 109.28125 114.425781 108.835938 114.871094 109.949219 L 113.535156 105.945312 L 110.863281 105.054688 L 102.398438 109.949219 L 101.957031 112.394531 L 101.957031 117.285156 "/>
<path style=" stroke:none;fill-rule:nonzero;fill:rgb(93.72549%,23.921569%,22.745098%);fill-opacity:1;" d="M 81.691406 125.734375 C 81.425781 122.265625 81.140625 118.800781 80.824219 115.332031 C 80.355469 110.15625 82.070312 111.058594 86.566406 111.058594 C 87.25 111.058594 90.789062 111.875 91.042969 112.394531 C 92.257812 114.871094 89.011719 114.320312 92.441406 116.1875 C 95.339844 117.765625 100.453125 115.230469 99.28125 111.726562 C 98.628906 110.945312 95.871094 111.484375 94.882812 110.972656 C 93.144531 110.070312 91.40625 109.171875 89.664062 108.269531 C 87.453125 107.125 82.335938 105.453125 79.976562 107.054688 C 73.996094 111.113281 80.355469 121.261719 82.488281 125.496094 "/>
<path style=" stroke:none;fill-rule:nonzero;fill:rgb(13.72549%,12.156863%,12.54902%);fill-opacity:1;" d="M 116.039062 78.136719 C 111.683594 80.929688 106.828125 83.96875 99.691406 83.261719 C 98.167969 81.9375 97.585938 78.992188 99.070312 77.046875 C 99.839844 78.371094 99.355469 80.804688 101.503906 81.171875 C 105.550781 81.863281 110.261719 78.699219 113.175781 77.59375 C 114.980469 74.554688 113.019531 73.433594 111.394531 71.476562 C 108.0625 67.46875 103.597656 62.5 103.757812 56.5 C 105.105469 55.523438 105.21875 57.988281 105.414062 58.433594 C 107.152344 62.5 111.527344 67.695312 114.722656 71.175781 C 115.507812 72.03125 116.796875 72.855469 116.941406 73.421875 C 117.355469 75.066406 115.863281 77.039062 116.039062 78.136719 "/>
<path style=" stroke:none;fill-rule:nonzero;fill:rgb(13.72549%,12.156863%,12.54902%);fill-opacity:1;" d="M 58.632812 75.195312 C 57.269531 74.417969 56.945312 70.992188 55.34375 70.894531 C 53.050781 70.753906 53.46875 75.339844 53.480469 78.019531 C 51.902344 76.589844 51.625 72.191406 52.785156 69.929688 C 51.464844 69.285156 50.875 70.644531 50.144531 71.125 C 51.082031 64.300781 60.140625 67.960938 58.632812 75.195312 "/>
<path style=" stroke:none;fill-rule:nonzero;fill:rgb(50.588235%,69.019608%,76.862745%);fill-opacity:1;" d="M 115.71875 123.472656 C 112.640625 128.734375 109.695312 134.144531 106.042969 138.789062 C 107.574219 134.292969 108.230469 126.765625 108.460938 121.03125 C 111.664062 119.535156 114.410156 121.367188 115.71875 123.472656 "/>
<path style=" stroke:none;fill-rule:nonzero;fill:rgb(13.72549%,12.156863%,12.54902%);fill-opacity:1;" d="M 132.285156 142.394531 C 128.839844 143.082031 126.417969 146.429688 123.054688 146.214844 C 124.902344 143.613281 128.140625 142.515625 132.285156 142.394531 "/>
<path style=" stroke:none;fill-rule:nonzero;fill:rgb(13.72549%,12.156863%,12.54902%);fill-opacity:1;" d="M 133.804688 147.78125 C 130.996094 148.078125 127.695312 148.53125 124.847656 148.296875 C 126.195312 146.238281 131.394531 146.949219 133.804688 147.78125 "/>
<path style=" stroke:none;fill-rule:nonzero;fill:rgb(13.72549%,12.156863%,12.54902%);fill-opacity:1;" d="M 134.777344 152.425781 C 131.621094 152.492188 127.699219 152.429688 124.695312 152.179688 C 126.472656 150.273438 132.730469 151.472656 134.777344 152.425781 "/>
<path style=" stroke:none;fill-rule:nonzero;fill:rgb(86.27451%,85.098039%,84.705882%);fill-opacity:1;" d="M 109.78125 165.132812 C 110.234375 169.09375 111.804688 173.105469 111.609375 177.441406 C 109.863281 178.027344 108.859375 178.542969 106.519531 178.539062 C 106.355469 174.855469 105.863281 169.21875 106.011719 165.707031 C 107.160156 165.785156 108.855469 164.886719 109.78125 165.132812 "/>
<path style=" stroke:none;fill-rule:nonzero;fill:rgb(100%,70.980392%,67.45098%);fill-opacity:1;" d="M 104.691406 106.777344 C 103.105469 107.8125 101.753906 109.101562 100.234375 110.203125 C 96.855469 110.371094 95.015625 109.972656 92.535156 108.035156 C 92.574219 107.878906 92.824219 107.949219 92.832031 107.757812 C 96.449219 109.367188 101.042969 107.101562 104.691406 106.777344 "/>
<path style=" stroke:none;fill-rule:nonzero;fill:rgb(50.588235%,69.019608%,76.862745%);fill-opacity:1;" d="M 85.71875 131.378906 C 86.710938 127.082031 90.601562 124.859375 94.136719 122.492188 C 97.78125 127.113281 100 133.058594 102.441406 138.792969 C 96.671875 137.054688 90.777344 134.238281 85.71875 131.378906 "/>
<path style=" stroke:none;fill-rule:nonzero;fill:rgb(13.72549%,12.156863%,12.54902%);fill-opacity:1;" d="M 106.011719 165.707031 C 105.863281 169.21875 106.355469 174.855469 106.519531 178.539062 C 108.859375 178.542969 109.863281 178.027344 111.609375 177.441406 C 111.804688 173.105469 110.234375 169.09375 109.78125 165.132812 C 108.855469 164.886719 107.160156 165.785156 106.011719 165.707031 Z M 69.59375 145.726562 C 71.136719 159.886719 73.367188 171.789062 77.464844 184.324219 C 86.558594 187.082031 97.519531 187.324219 105.558594 184.835938 C 104.082031 177.757812 104.726562 169.144531 103.863281 161.59375 C 103.214844 155.917969 103.546875 150.207031 102.652344 144.414062 C 92.914062 142.390625 79.148438 143.941406 69.59375 145.726562 Z M 104.957031 144.503906 C 104.875 150.585938 105.230469 156.582031 105.695312 162.671875 C 108.03125 162.320312 109.617188 162.085938 111.792969 161.613281 C 111.085938 155.75 111.171875 149.15625 109.734375 143.96875 C 108.074219 143.984375 106.613281 143.949219 104.957031 144.503906 Z M 116.816406 143.523438 C 115.707031 143.269531 114.414062 143.515625 113.355469 143.535156 C 113.855469 148.492188 115.0625 153.960938 115.488281 159.164062 C 117.15625 159.214844 118.046875 158.429688 119.421875 158.167969 C 119.492188 153.597656 119.019531 147.308594 116.816406 143.523438 Z M 134.777344 159.910156 C 138.253906 159.066406 140.441406 154.816406 139.46875 150.445312 C 138.816406 147.511719 137.652344 141.984375 136.410156 140.105469 C 135.488281 138.71875 132.996094 136.898438 131.007812 138.171875 C 127.769531 140.242188 122.066406 140.84375 119.707031 143.347656 C 120.890625 147.285156 121.257812 152.691406 121.746094 157.679688 C 125.789062 157.929688 130.765625 156.566406 134.128906 158.015625 C 131.78125 158.773438 128.734375 158.78125 126.707031 159.886719 C 128.363281 160.6875 132.246094 160.523438 134.777344 159.910156 Z M 102.441406 138.792969 C 100 133.058594 97.78125 127.113281 94.136719 122.492188 C 90.601562 124.859375 86.710938 127.082031 85.71875 131.378906 C 90.777344 134.238281 96.671875 137.054688 102.441406 138.792969 Z M 108.460938 121.03125 C 108.230469 126.769531 107.574219 134.292969 106.042969 138.789062 C 109.695312 134.144531 112.640625 128.738281 115.71875 123.472656 C 114.410156 121.367188 111.664062 119.535156 108.460938 121.03125 Z M 101.636719 118.609375 C 100.253906 118.460938 99.078125 120.199219 97.28125 119.445312 C 96.867188 119.902344 96.492188 120.394531 96.074219 120.839844 C 100.046875 125.621094 101.851562 132.40625 104.921875 138.027344 C 106.566406 132.625 106.378906 126.714844 106.742188 120.820312 C 104.480469 120.964844 103.222656 118.777344 101.636719 118.609375 Z M 97.25 112.824219 C 97.101562 114.464844 97.484375 115 97.8125 116.875 C 103.203125 118.558594 102.261719 109.488281 97.25 112.824219 Z M 91.269531 110.867188 C 88.949219 109.597656 85.457031 108.21875 82.457031 107.644531 C 78.738281 106.933594 79.085938 112.710938 79.246094 116.160156 C 79.371094 118.886719 80.789062 121.773438 81.40625 123.585938 C 81.695312 124.429688 81.761719 125.328125 82.488281 125.496094 C 83.765625 125.796875 87.992188 124.109375 89.195312 123.453125 C 91.742188 122.066406 93.71875 119.863281 95.878906 118.386719 C 95.90625 117.667969 95.933594 116.949219 95.964844 116.230469 C 94.664062 115.582031 93.160156 115.125 91.253906 115.039062 C 92.546875 114.390625 94.453125 114.398438 95.632812 113.625 C 95.644531 113.335938 95.65625 113.050781 95.664062 112.765625 C 93.511719 112.597656 92.691406 111.640625 91.269531 110.867188 Z M 69.082031 106.839844 C 67.15625 108.796875 74.492188 111.460938 76.828125 111.601562 C 76.8125 110.367188 77.53125 109.199219 77.386719 108.3125 C 74.613281 107.828125 70.96875 108.148438 69.082031 106.839844 Z M 92.832031 107.757812 C 92.824219 107.949219 92.574219 107.878906 92.535156 108.035156 C 95.015625 109.972656 96.855469 110.371094 100.234375 110.203125 C 101.753906 109.101562 103.105469 107.8125 104.691406 106.777344 C 101.042969 107.101562 96.449219 109.367188 92.832031 107.757812 Z M 114.632812 114.359375 C 114.527344 112.1875 113.957031 107.722656 112.613281 106.941406 C 109.792969 105.296875 104.777344 110.261719 102.652344 111.019531 C 102.882812 111.683594 103.265625 112.207031 103.292969 113.058594 C 104.550781 112.75 106.082031 112.960938 107.167969 113.496094 C 105.910156 113.636719 104.515625 113.625 103.679688 114.226562 C 103.375 115.105469 103.757812 116.308594 103.554688 117.53125 C 106.542969 118.375 109.957031 118.820312 113.734375 118.933594 C 114.46875 117.976562 114.71875 116.160156 114.632812 114.359375 Z M 65.835938 108.730469 C 65.230469 108.300781 61.136719 102.976562 60.574219 103.199219 C 53.164062 106.117188 46.234375 111.164062 40.042969 115.9375 C 45.945312 128.589844 48.332031 144.089844 48.75 159.03125 C 55.515625 162.1875 61.457031 166.742188 70.632812 167.21875 C 69.570312 159.714844 68.601562 153.019531 68 145.953125 C 65.691406 144.984375 62.382812 146 60.226562 145.652344 C 60.207031 143.058594 63.523438 144.515625 63.796875 142.769531 C 64.007812 141.449219 61.972656 141.347656 62.636719 139.269531 C 64.324219 139.882812 65.210938 141.234375 67.007812 141.742188 C 68.652344 138.148438 66.984375 131.792969 67.222656 128.792969 C 67.265625 128.230469 67.503906 125.667969 68.769531 126.117188 C 69.886719 126.515625 68.703125 132.925781 68.828125 135.765625 C 68.9375 138.382812 68.511719 140.917969 69.570312 142.558594 C 78.441406 141.355469 87.453125 140.574219 97.046875 140.3125 C 94.9375 139.410156 92.429688 138.550781 89.679688 137.003906 C 88.1875 136.164062 83.492188 134.417969 83.058594 133.003906 C 82.375 130.753906 84.859375 129.550781 85.285156 127.621094 C 80.808594 130.058594 79.9375 125.285156 78.878906 121.902344 C 77.917969 118.835938 77.371094 116.546875 77.136719 114.78125 C 73.28125 112.945312 69.15625 111.085938 65.835938 108.730469 Z M 110.714844 103.84375 C 116.890625 100.851562 118.003906 115.019531 115.582031 119.582031 C 115.957031 120.941406 117.242188 121.464844 117.769531 122.6875 C 114.324219 128.851562 110.496094 134.605469 106.980469 140.695312 C 109.59375 139.070312 113.332031 140.40625 116.410156 139.1875 C 117.535156 138.746094 118.347656 136.171875 119.199219 134.117188 C 121.542969 128.453125 124.003906 121.320312 125.097656 115.917969 C 125.34375 114.6875 126.015625 112.003906 125.867188 110.910156 C 125.597656 108.949219 122.933594 107.492188 121.578125 106.28125 C 119.078125 104.039062 117.507812 102.070312 114.902344 99.972656 C 113.847656 101.53125 111.578125 102.578125 110.714844 103.84375 Z M 51.714844 49.160156 C 48.773438 52.390625 49.390625 58.449219 49.746094 62.757812 C 55.066406 59.417969 62.125 63.023438 62.054688 68.707031 C 64.59375 68.640625 63.003906 65.539062 62.546875 63.542969 C 61.042969 57.019531 65.074219 49.933594 62.726562 43.972656 C 58.171875 44.316406 54.429688 46.171875 51.714844 49.160156 Z M 72.769531 30.394531 C 66.109375 32.28125 57.570312 37.113281 54.835938 43.089844 C 56.953125 42.78125 58.425781 41.714844 60.515625 41.582031 C 61.304688 41.53125 62.339844 41.914062 63.25 41.6875 C 65.058594 41.238281 66.585938 37.1875 67.953125 35.679688 C 69.28125 34.207031 70.882812 33.578125 71.976562 32.234375 C 72.679688 31.898438 73.71875 31.921875 73.761719 30.867188 C 73.453125 30.539062 73.132812 30.292969 72.769531 30.394531 Z M 107.582031 32.40625 C 100.667969 28.507812 88.824219 25.34375 81.472656 29.003906 C 75.539062 31.960938 67.515625 36.847656 64.78125 43.042969 C 67.335938 49.019531 64.023438 54.5 63.8125 60.570312 C 63.703125 63.796875 65.335938 66.617188 65.460938 70.132812 C 64.585938 71.574219 61.917969 71.75 60.066406 71.652344 C 59.445312 68.542969 58.355469 65.046875 55.148438 64.695312 C 50.609375 64.199219 47.292969 67.949219 47.085938 71.871094 C 46.84375 76.480469 50.632812 84.117188 56.003906 83.589844 C 58.078125 83.382812 58.585938 81.308594 60.847656 81.328125 C 62.070312 83.769531 58.957031 84.535156 58.636719 86.28125 C 58.554688 86.730469 58.894531 88.496094 59.09375 89.320312 C 60.070312 93.347656 62.242188 98.554688 64.382812 101.621094 C 67.101562 105.507812 72.4375 106.09375 78.179688 106.472656 C 79.203125 104.265625 82.984375 104.449219 85.445312 105.023438 C 82.492188 103.859375 79.75 101.03125 77.476562 98.527344 C 74.867188 95.652344 72.222656 92.570312 72.089844 88.816406 C 77.023438 95.652344 81.097656 101.621094 90.070312 104.628906 C 96.859375 106.902344 104.789062 103.585938 110.003906 99.929688 C 112.167969 98.410156 113.460938 95.996094 115 93.789062 C 120.753906 85.519531 123.441406 73.714844 122.851562 62.277344 C 122.609375 57.558594 122.617188 52.855469 121.03125 49.683594 C 120.011719 46.933594 119.199219 45.550781 117.136719 42.332031 C 114.34375 38.734375 111.554688 34.640625 107.582031 32.40625 Z M 120.320312 138.621094 C 125.722656 135.941406 135.820312 131.402344 139.207031 138.632812 C 140.457031 141.296875 141.921875 145.800781 142.570312 148.550781 C 143.484375 152.433594 141.578125 160.589844 137.582031 161.890625 C 134.054688 163.039062 129.9375 162.96875 125.691406 162.117188 C 125.1875 161.703125 124.632812 160.976562 124.242188 160.222656 C 121.207031 160.105469 118.367188 160.386719 115.96875 161.628906 C 116.199219 163.871094 114.679688 164.230469 113.257812 164.691406 C 112.203125 168.871094 115.367188 174.324219 114.609375 178.132812 C 114.070312 180.847656 110.726562 181.265625 108.269531 181.773438 C 108.1875 183.28125 108.375 184.539062 108.542969 185.816406 C 107.984375 187.882812 105.464844 189.058594 103.074219 189.347656 C 95.21875 190.292969 83.292969 190.714844 75.738281 188 C 73.628906 182.835938 71.96875 176.554688 70.210938 170.65625 C 62.84375 171.445312 56.882812 167.480469 51.261719 164.886719 C 49.316406 163.988281 46.625 163.488281 45.898438 161.945312 C 45.195312 160.445312 45.484375 157.578125 45.308594 154.867188 C 44.863281 147.945312 44.484375 141.265625 42.652344 134.179688 C 41.828125 130.996094 40.398438 128.191406 39.398438 125.125 C 38.472656 122.285156 36.859375 118.773438 36.4375 115.941406 C 35.816406 111.742188 39.773438 111.511719 42.304688 109.691406 C 46.21875 106.878906 49.289062 105.320312 53.527344 102.78125 C 54.78125 102.03125 58.566406 100.128906 58.996094 99.25 C 59.855469 97.511719 57.527344 95.0625 56.90625 93.699219 C 55.925781 91.546875 55.410156 89.714844 55.269531 87.589844 C 51.714844 87.03125 49.019531 84.917969 47.394531 82.535156 C 44.699219 78.59375 42.832031 71.296875 45.164062 65.75 C 45.34375 65.3125 46.257812 64.453125 46.390625 63.78125 C 46.65625 62.460938 45.890625 60.703125 45.84375 59.296875 C 45.601562 52.085938 47.066406 45.871094 51.925781 43.695312 C 53.902344 35.84375 60.964844 33.234375 67.621094 29.332031 C 70.109375 27.875 72.851562 26.941406 75.683594 25.902344 C 85.839844 22.167969 101.429688 22.871094 109.863281 29.238281 C 113.4375 31.941406 119.152344 37.640625 121.195312 41.769531 C 126.59375 52.667969 126.210938 70.882812 122.433594 84.140625 C 121.925781 85.921875 121.191406 88.539062 120.164062 90.675781 C 119.445312 92.167969 117.21875 95.15625 117.488281 96.476562 C 117.765625 97.839844 122.570312 101.480469 123.597656 102.46875 C 125.453125 104.257812 128.972656 106.625 129.257812 108.878906 C 129.566406 111.277344 128.199219 114.558594 127.507812 116.875 C 125.199219 124.597656 122.941406 131.734375 120.320312 138.621094 "/>
<path style=" stroke:none;fill-rule:nonzero;fill:rgb(11.372549%,9.803922%,9.803922%);fill-opacity:1;" d="M 103.804688 123.398438 C 103.804688 124.074219 103.253906 124.621094 102.578125 124.621094 C 101.902344 124.621094 101.355469 124.074219 101.355469 123.398438 C 101.355469 122.722656 101.902344 122.175781 102.578125 122.175781 C 103.253906 122.175781 103.804688 122.722656 103.804688 123.398438 "/>
<path style=" stroke:none;fill-rule:nonzero;fill:rgb(11.372549%,9.803922%,9.803922%);fill-opacity:1;" d="M 105.027344 129.070312 C 105.027344 129.746094 104.480469 130.292969 103.800781 130.292969 C 103.125 130.292969 102.578125 129.746094 102.578125 129.070312 C 102.578125 128.394531 103.125 127.847656 103.800781 127.847656 C 104.480469 127.847656 105.027344 128.394531 105.027344 129.070312 "/>
<path style=" stroke:none;fill-rule:nonzero;fill:rgb(13.72549%,12.156863%,12.54902%);fill-opacity:1;" d="M 97.796875 55.835938 C 98.773438 57.628906 99.257812 58.769531 100.011719 61.097656 C 100.433594 62.398438 100.65625 63.585938 100.441406 65.363281 C 99.917969 66.371094 99.554688 66.949219 98.785156 67.417969 C 97.390625 68.269531 94.558594 68.152344 92.410156 68.382812 C 91.246094 68.132812 90.371094 68.355469 88.066406 67.25 C 84.203125 65.980469 84.019531 66.054688 82.40625 65.527344 C 79.023438 64.425781 78.703125 64.449219 76.65625 63.886719 C 79.328125 63.867188 83.136719 63.710938 85.410156 63.585938 C 88.34375 63.425781 92.328125 62.5625 94.65625 61.808594 C 96.113281 61.335938 94.65625 61.808594 96.570312 60.644531 L 97.609375 59.136719 Z M 97.796875 55.835938 "/>
<path style=" stroke:none;fill-rule:nonzero;fill:rgb(13.72549%,12.156863%,12.54902%);fill-opacity:1;" d="M 107.148438 56.496094 C 107.210938 60.09375 107.371094 61.296875 107.714844 63.476562 L 109.511719 66.210938 L 110.265625 67.910156 C 112.992188 67.246094 114.519531 65.644531 114.519531 65.644531 C 118.046875 63.527344 118.605469 62.796875 119.335938 61.683594 C 120.53125 60.265625 121.277344 58.917969 122.359375 57.15625 C 122.261719 57.269531 122.875 57.34375 118.769531 59.417969 C 115.628906 60.535156 112.609375 60.675781 111.777344 60.363281 C 111.0625 60.484375 110.199219 60.019531 109.226562 59.136719 C 108.433594 58.890625 107.78125 57.195312 107.148438 56.496094 Z M 107.148438 56.496094 "/>
<path style=" stroke:none;fill-rule:nonzero;fill:rgb(0%,0%,0%);fill-opacity:1;" d="M 77.445312 42.390625 C 77.445312 42.390625 76.824219 40.789062 76.6875 42.609375 C 76.605469 43.707031 76.648438 48.804688 76.660156 50.941406 C 75.28125 53.4375 74.703125 54.898438 73.816406 56.421875 L 74.082031 57.34375 C 75.09375 55.789062 76.628906 53.058594 77.269531 51.753906 L 77.484375 50.164062 L 77.578125 46.4375 Z M 77.445312 42.390625 "/>
<path style=" stroke:none;fill-rule:nonzero;fill:rgb(94.901961%,77.254902%,75.686275%);fill-opacity:1;" d="M 66.949219 45.550781 L 65.15625 38.425781 L 65.015625 29.085938 L 65.628906 21.351562 L 66.382812 20.453125 L 67.472656 20.453125 L 68.226562 22.90625 L 68.933594 28 L 70.964844 32.390625 L 73.707031 38.285156 L 71.34375 41.539062 L 67.1875 45.832031 "/>
<path style=" stroke:none;fill-rule:nonzero;fill:rgb(13.72549%,12.156863%,12.54902%);fill-opacity:1;" d="M 72.949219 38.285156 C 74.210938 39.109375 74.527344 39.230469 75.121094 38.378906 C 75.152344 37.832031 74.964844 37.390625 74.746094 36.964844 L 73.5625 35.40625 C 72.871094 34.621094 71.765625 32.511719 71.203125 31.066406 C 70.527344 29.386719 69.804688 27.777344 69.453125 26.113281 C 68.652344 22.769531 69.359375 20.980469 67.660156 19.511719 C 67.199219 19.175781 66.667969 19.027344 65.957031 19.320312 C 65.324219 20.140625 64.839844 19.855469 64.636719 22.386719 C 63.921875 25.238281 64.238281 27.484375 63.976562 29.890625 C 63.929688 32.554688 63.460938 31.222656 63.976562 39.132812 C 64.769531 45.558594 64.875 44.121094 65.4375 45.878906 C 65.726562 46.121094 66.394531 46.785156 66.808594 46.777344 C 67.054688 46.476562 67.476562 46.539062 67.375 45.550781 C 66.222656 42.582031 66.203125 39.890625 66.007812 39.230469 L 65.769531 35.550781 C 65.527344 32.992188 65.582031 31.027344 65.582031 28.945312 C 65.699219 27.574219 65.503906 27.09375 65.863281 24.605469 C 66.066406 22.179688 65.847656 21.320312 66.761719 20.832031 C 67.085938 21.015625 67.476562 21.421875 67.660156 23.285156 C 68.03125 27.03125 68.632812 28.507812 68.792969 29.652344 C 69.277344 32.171875 70.367188 34.375 71.53125 36.210938 C 71.972656 36.96875 72.390625 37.765625 72.949219 38.285156 Z M 72.949219 38.285156 "/>
<path style=" stroke:none;fill-rule:nonzero;fill:rgb(13.72549%,12.156863%,12.54902%);fill-opacity:1;" d="M 96.667969 96.980469 L 100.5625 94.808594 L 103.550781 92.863281 C 104.90625 92.554688 105.582031 92.648438 106.359375 92.683594 L 107.945312 93.226562 L 111.523438 96.210938 L 112.925781 96.347656 L 113.199219 93.316406 L 115.507812 89.335938 L 111.882812 88.976562 L 107.492188 89.425781 L 102.554688 89.382812 C 98.378906 89.691406 94.136719 89.914062 89.601562 89.742188 C 88.210938 89.742188 86.386719 89.914062 84.394531 90.152344 L 83.53125 90.917969 L 84.710938 92.410156 C 85.34375 94.015625 85.976562 95.011719 86.613281 96.167969 L 87.65625 98.878906 L 90.28125 99.828125 C 92.792969 99.074219 94.777344 98.046875 96.667969 96.980469 Z M 96.667969 96.980469 "/>
<path style=" stroke:none;fill-rule:nonzero;fill:rgb(90.588235%,90.588235%,90.588235%);fill-opacity:1;" d="M 88.558594 90.917969 L 89.554688 90.601562 L 91.003906 90.601562 L 91.867188 90.785156 C 92.257812 91.507812 92.308594 92.046875 92.277344 92.964844 C 92.199219 93.679688 92.164062 93.796875 91.777344 93.980469 L 90.460938 93.996094 L 89.011719 92.683594 L 88.105469 91.28125 Z M 88.558594 90.917969 "/>
<path style=" stroke:none;fill-rule:nonzero;fill:rgb(90.588235%,90.588235%,90.588235%);fill-opacity:1;" d="M 93.089844 90.601562 C 92.4375 90.644531 92.949219 91.851562 92.90625 92.503906 C 93.035156 93.460938 93.238281 93.652344 93.453125 93.769531 L 94.765625 93.695312 L 96.257812 93.316406 C 96.574219 93.070312 96.320312 92.027344 96.402344 91.398438 C 96.144531 90.78125 96.171875 90.621094 96.078125 90.421875 C 93.324219 90.625 93.953125 90.554688 93.089844 90.601562 Z M 93.089844 90.601562 "/>
<path style=" stroke:none;fill-rule:nonzero;fill:rgb(90.588235%,90.588235%,90.588235%);fill-opacity:1;" d="M 96.953125 90.5 L 97.007812 91.6875 C 97.039062 92.144531 97.199219 92.601562 97.308594 92.757812 C 97.734375 92.683594 97.925781 92.847656 98.523438 92.773438 C 99.519531 92.625 99.910156 92.472656 100.515625 92.320312 C 100.707031 92.046875 100.65625 91.160156 100.511719 90.34375 L 98.480469 90.378906 Z M 96.953125 90.5 "/>
<path style=" stroke:none;fill-rule:nonzero;fill:rgb(90.588235%,90.588235%,90.588235%);fill-opacity:1;" d="M 101.300781 90.347656 C 101.417969 90.796875 101.222656 91.480469 101.539062 92.015625 L 102.429688 92.03125 C 103.21875 91.863281 103.476562 91.472656 104.34375 91.3125 L 104.894531 91.296875 C 104.902344 90.867188 104.996094 90.746094 104.914062 90.238281 L 102.660156 90.257812 Z M 101.300781 90.347656 "/>
<path style=" stroke:none;fill-rule:nonzero;fill:rgb(90.588235%,90.588235%,90.588235%);fill-opacity:1;" d="M 105.542969 90.285156 C 105.40625 90.808594 105.511719 90.898438 105.542969 91.335938 C 106.609375 91.160156 107.101562 91.492188 107.328125 91.566406 C 108.242188 91.652344 108.050781 91.722656 108.289062 91.882812 L 108.707031 91.445312 L 108.769531 90.179688 L 107.628906 90.152344 C 107.125 90.171875 107.214844 90.109375 105.542969 90.285156 Z M 105.542969 90.285156 "/>
<path style=" stroke:none;fill-rule:nonzero;fill:rgb(13.72549%,12.156863%,12.54902%);fill-opacity:1;" d="M 103.570312 85.558594 C 104.164062 85.597656 104.28125 86.40625 104.335938 87.316406 L 104.542969 89.074219 L 103.722656 90.28125 L 97.640625 90.722656 L 87.265625 90.394531 L 84.554688 88.632812 C 83.359375 87.039062 82.453125 86.328125 80.363281 81.984375 C 78.804688 79.488281 78.175781 77.453125 77.398438 75.722656 C 76.679688 73.488281 76.398438 71.894531 76.070312 70.226562 C 76.660156 69.433594 77.621094 73.433594 78.574219 75.117188 C 79.984375 77.894531 80.828125 78.957031 81.488281 79.84375 C 83.128906 81.777344 83.53125 82.105469 84.199219 82.863281 C 86.152344 84.902344 86.550781 85.171875 86.550781 85.171875 C 87.265625 85.519531 86.984375 85.347656 93.960938 85.558594 C 95.847656 85.636719 94.875 85.886719 103.570312 85.558594 Z M 103.570312 85.558594 "/>
<path style=" stroke:none;fill-rule:nonzero;fill:rgb(13.72549%,12.156863%,12.54902%);fill-opacity:1;" d="M 107.0625 85.609375 C 106.632812 86.175781 106.566406 86.527344 106.519531 86.859375 C 106.3125 88.777344 106.492188 88.605469 106.519531 89.234375 L 107.113281 89.949219 L 108.890625 89.949219 C 112.195312 88.6875 114.398438 87.6875 116.648438 86.546875 C 117.996094 85.328125 118.09375 85.105469 118.726562 84.535156 C 119.226562 83.691406 119.402344 83.089844 120.109375 79.117188 C 120.335938 77.78125 120.65625 77.121094 121.097656 70.746094 L 120.40625 70.613281 C 119.992188 74.699219 119.890625 74.917969 119.171875 77.773438 C 118.851562 78.722656 118.742188 79.058594 117.933594 81.175781 C 116.25 82.800781 114.289062 83.316406 113.042969 83.726562 C 110.109375 84.640625 109.265625 84.847656 107.0625 85.609375 Z M 107.0625 85.609375 "/>
<path style=" stroke:none;fill-rule:nonzero;fill:rgb(13.72549%,12.156863%,12.54902%);fill-opacity:1;" d="M 79.609375 87.503906 C 79.71875 87.921875 79.101562 88.316406 81.8125 89.5 C 82.289062 89.710938 83.023438 90.328125 83.742188 91.273438 C 84.109375 91.761719 84.777344 93.066406 85.410156 94.550781 C 86.253906 96.960938 86.175781 97.234375 86.542969 98.464844 L 87.929688 99.953125 C 90.785156 100.074219 90.917969 99.636719 92.164062 99.15625 L 92.636719 97.949219 C 91.59375 94.523438 90.550781 93.589844 89.511719 91.917969 C 88.199219 90.332031 86.886719 89.660156 85.578125 88.898438 C 84.65625 88.421875 83.734375 87.941406 82.023438 87.742188 Z M 79.609375 87.503906 "/>
<path style=" stroke:none;fill-rule:nonzero;fill:rgb(94.117647%,94.117647%,94.117647%);fill-opacity:1;" d="M 84.707031 89.660156 C 85.390625 90.074219 85.945312 90.246094 86.484375 90.574219 C 87.246094 91.019531 88.097656 91.824219 88.425781 92.441406 C 88.882812 93.171875 89.316406 93.75 89.484375 94.140625 C 89.882812 94.871094 90.265625 95.601562 90.59375 96.070312 C 90.800781 96.558594 90.753906 96.773438 91.09375 97.414062 C 90.378906 97.71875 90.257812 97.996094 89.871094 98.265625 C 88.894531 98.398438 88.140625 98.203125 88.121094 97.902344 C 87.886719 96.621094 87.621094 95.945312 87.316406 94.992188 C 87.035156 94.195312 86.78125 93.441406 85.707031 91.457031 C 84.78125 90.222656 83.886719 89.78125 83.289062 89.167969 Z M 84.707031 89.660156 "/>
<path style=" stroke:none;fill-rule:nonzero;fill:rgb(90.588235%,90.588235%,90.588235%);fill-opacity:1;" d="M 109.484375 90.308594 L 109.390625 91.1875 L 109.242188 92.066406 L 110.058594 92.609375 L 111.421875 92.578125 L 111.484375 90.402344 Z M 109.484375 90.308594 "/>
<path style=" stroke:none;fill-rule:nonzero;fill:rgb(13.72549%,12.156863%,12.54902%);fill-opacity:1;" d="M 110.308594 93.886719 L 112.65625 95.988281 L 113.707031 94.957031 C 113.796875 94.171875 113.921875 93.386719 114.167969 92.601562 C 114.355469 92.023438 114.722656 91.046875 114.980469 90.558594 C 115.652344 89.078125 115.609375 89.109375 116.066406 88.382812 C 116.066406 88.382812 116.871094 87.109375 117.28125 86.4375 C 116.566406 86.378906 115.726562 86.523438 115.3125 86.746094 C 114.128906 87.242188 113.054688 88.292969 111.945312 89.230469 C 110.359375 91.539062 110.449219 91.402344 110.117188 92.421875 Z M 110.308594 93.886719 "/>
<path style=" stroke:none;fill-rule:nonzero;fill:rgb(94.117647%,94.117647%,94.117647%);fill-opacity:1;" d="M 111.03125 92.917969 L 111.894531 93.949219 L 112.578125 94.550781 L 113.136719 94.246094 C 113.242188 93.5 113.246094 94.128906 113.492188 92.511719 C 113.769531 91.550781 113.949219 90.675781 114.4375 89.527344 C 114.957031 88.320312 115.25 88.039062 115.636719 87.371094 C 115.128906 87.550781 114.515625 87.761719 113.410156 89.035156 L 112.550781 90.132812 C 112.054688 90.679688 111.636719 91.367188 111.265625 91.984375 Z M 111.03125 92.917969 "/>
</g>
</svg>
